# xmcd CD database file
#
# Track frame offsets:
#	182
#	38482
#	87457
#	130207
#	166282
#	231532
#
# Disc length: 3385 seconds
#
# Revision: 0
# Processed by: cddbd v1.5PL3 Copyright (c) Steve Scherf et al.
# Submitted via: CDex 1.51
#
DISCID=480d3706
DTITLE=Henry Kubik - The Touch
DYEAR=1900
DGENRE=New Age
TTITLE0=The Touch
TTITLE1=Inspiration
TTITLE2=Streams of Eternity
TTITLE3=If I Could Find The Way
TTITLE4=Focal Point
TTITLE5=Cry
EXTD=
EXTT0=
EXTT1=
EXTT2=
EXTT3=
EXTT4=
EXTT5=
PLAYORDER=
